<mxfile host="app.diagrams.net" agent="Mozilla/5.0 (Windows NT 10.0; Win64; x64) AppleWebKit/537.36 (KHTML, like Gecko) Chrome/128.0.0.0 Safari/537.36 Edg/128.0.0.0" version="24.7.7">
  <diagram id="6a731a19-8d31-9384-78a2-239565b7b9f0" name="Page-1">
    <mxGraphModel dx="1242" dy="567" grid="1" gridSize="10" guides="1" tooltips="1" connect="1" arrows="1" fold="1" page="1" pageScale="1" pageWidth="1169" pageHeight="827" background="none" math="0" shadow="0">
      <root>
        <mxCell id="0" />
        <mxCell id="1" parent="0" />
        <mxCell id="rv96uBJjaYjVEwZpzc_H-55" style="edgeStyle=orthogonalEdgeStyle;rounded=0;orthogonalLoop=1;jettySize=auto;html=1;exitX=1;exitY=0.5;exitDx=0;exitDy=0;entryX=0;entryY=0.5;entryDx=0;entryDy=0;" edge="1" parent="1" source="rv96uBJjaYjVEwZpzc_H-56" target="rv96uBJjaYjVEwZpzc_H-58">
          <mxGeometry relative="1" as="geometry" />
        </mxCell>
        <mxCell id="rv96uBJjaYjVEwZpzc_H-56" value="点击举报按钮" style="rounded=1;whiteSpace=wrap;html=1;" vertex="1" parent="1">
          <mxGeometry x="160" y="130" width="120" height="60" as="geometry" />
        </mxCell>
        <mxCell id="rv96uBJjaYjVEwZpzc_H-57" style="edgeStyle=orthogonalEdgeStyle;rounded=0;orthogonalLoop=1;jettySize=auto;html=1;exitX=1;exitY=0.5;exitDx=0;exitDy=0;entryX=0;entryY=0.5;entryDx=0;entryDy=0;" edge="1" parent="1" source="rv96uBJjaYjVEwZpzc_H-58" target="rv96uBJjaYjVEwZpzc_H-60">
          <mxGeometry relative="1" as="geometry" />
        </mxCell>
        <mxCell id="rv96uBJjaYjVEwZpzc_H-58" value="选择举报原因" style="rounded=1;whiteSpace=wrap;html=1;" vertex="1" parent="1">
          <mxGeometry x="310" y="130" width="120" height="60" as="geometry" />
        </mxCell>
        <mxCell id="rv96uBJjaYjVEwZpzc_H-59" style="edgeStyle=orthogonalEdgeStyle;rounded=0;orthogonalLoop=1;jettySize=auto;html=1;exitX=1;exitY=0.5;exitDx=0;exitDy=0;entryX=0;entryY=0.5;entryDx=0;entryDy=0;" edge="1" parent="1" source="rv96uBJjaYjVEwZpzc_H-60" target="rv96uBJjaYjVEwZpzc_H-62">
          <mxGeometry relative="1" as="geometry" />
        </mxCell>
        <mxCell id="rv96uBJjaYjVEwZpzc_H-60" value="提交举报" style="rounded=1;whiteSpace=wrap;html=1;" vertex="1" parent="1">
          <mxGeometry x="470" y="130" width="120" height="60" as="geometry" />
        </mxCell>
        <mxCell id="rv96uBJjaYjVEwZpzc_H-67" style="edgeStyle=orthogonalEdgeStyle;rounded=0;orthogonalLoop=1;jettySize=auto;html=1;exitX=1;exitY=0.5;exitDx=0;exitDy=0;" edge="1" parent="1" source="rv96uBJjaYjVEwZpzc_H-62" target="rv96uBJjaYjVEwZpzc_H-66">
          <mxGeometry relative="1" as="geometry" />
        </mxCell>
        <mxCell id="rv96uBJjaYjVEwZpzc_H-62" value="保存举报信息" style="rounded=1;whiteSpace=wrap;html=1;" vertex="1" parent="1">
          <mxGeometry x="630" y="130" width="120" height="60" as="geometry" />
        </mxCell>
        <mxCell id="rv96uBJjaYjVEwZpzc_H-63" style="edgeStyle=orthogonalEdgeStyle;rounded=0;orthogonalLoop=1;jettySize=auto;html=1;exitX=1;exitY=0.5;exitDx=0;exitDy=0;entryX=0;entryY=0.5;entryDx=0;entryDy=0;" edge="1" parent="1" source="rv96uBJjaYjVEwZpzc_H-64" target="rv96uBJjaYjVEwZpzc_H-56">
          <mxGeometry relative="1" as="geometry" />
        </mxCell>
        <mxCell id="rv96uBJjaYjVEwZpzc_H-64" value="开始" style="ellipse;whiteSpace=wrap;html=1;" vertex="1" parent="1">
          <mxGeometry x="20" y="132.5" width="100" height="55" as="geometry" />
        </mxCell>
        <mxCell id="rv96uBJjaYjVEwZpzc_H-65" value="结束" style="ellipse;whiteSpace=wrap;html=1;" vertex="1" parent="1">
          <mxGeometry x="940" y="132.5" width="100" height="55" as="geometry" />
        </mxCell>
        <mxCell id="rv96uBJjaYjVEwZpzc_H-68" style="edgeStyle=orthogonalEdgeStyle;rounded=0;orthogonalLoop=1;jettySize=auto;html=1;exitX=1;exitY=0.5;exitDx=0;exitDy=0;entryX=0;entryY=0.5;entryDx=0;entryDy=0;" edge="1" parent="1" source="rv96uBJjaYjVEwZpzc_H-66" target="rv96uBJjaYjVEwZpzc_H-65">
          <mxGeometry relative="1" as="geometry" />
        </mxCell>
        <mxCell id="rv96uBJjaYjVEwZpzc_H-66" value="通知管理员" style="rounded=1;whiteSpace=wrap;html=1;" vertex="1" parent="1">
          <mxGeometry x="790" y="130" width="120" height="60" as="geometry" />
        </mxCell>
      </root>
    </mxGraphModel>
  </diagram>
</mxfile>
